<svg width="35" height="35" viewBox="0 0 35 35" fill="none" xmlns="http://www.w3.org/2000/svg">
<path d="M29.1667 8.74992H5.83333V5.83325H29.1667V8.74992ZM20.8542 17.4999C19.6875 18.8999 18.9583 20.6791 18.9583 22.6041C18.9583 24.2666 19.5854 26.0458 20.4167 27.7083V29.1666H5.83333V20.4166H4.375V17.4999L5.83333 10.2083H29.1667L30.1875 15.3124C29.225 14.8458 28.175 14.5833 27.0667 14.5833L26.775 13.1249H8.225L7.35 17.4999H20.8542ZM17.5 20.4166H8.75V26.2499H17.5V20.4166ZM32.0833 22.6041C32.0833 26.3958 26.9792 32.0833 26.9792 32.0833C26.9792 32.0833 21.875 26.3958 21.875 22.6041C21.875 19.8333 24.2083 17.4999 26.9792 17.4999C29.75 17.4999 32.0833 19.8333 32.0833 22.6041ZM28.7292 22.7499C28.7292 21.8749 27.8542 20.9999 26.9792 20.9999C26.1042 20.9999 25.2292 21.7291 25.2292 22.7499C25.2292 23.6249 25.9583 24.4999 26.9792 24.4999C28 24.4999 28.875 23.6249 28.7292 22.7499Z" fill="#844FD1"/>
</svg>
