<svg width="35" height="35" viewBox="0 0 35 35" fill="none" xmlns="http://www.w3.org/2000/svg">
<path d="M22.9688 4.375C21.0077 4.375 19.2303 4.7425 17.8413 5.43484C16.4533 6.12719 15.3125 7.25484 15.3125 8.75V13.125C15.3125 13.2661 15.3595 13.4028 15.3814 13.5352C14.2866 13.257 13.1608 13.1191 12.0312 13.125C10.0702 13.125 8.29281 13.4925 6.90375 14.1848C5.51578 14.8772 4.375 16.0048 4.375 17.5V26.25C4.375 27.7452 5.51578 28.8728 6.90484 29.5652C8.29281 30.2575 10.0702 30.625 12.0312 30.625C13.9923 30.625 15.7697 30.2575 17.1587 29.5652C18.5456 28.8728 19.6875 27.7452 19.6875 26.25V25.8059C20.7575 26.0952 21.8604 26.2445 22.9688 26.25C24.9298 26.25 26.7072 25.8825 28.0963 25.1902C29.4831 24.4978 30.625 23.3702 30.625 21.875V8.75C30.625 7.25484 29.4842 6.12719 28.0952 5.43484C26.7083 4.7425 24.9309 4.375 22.9688 4.375ZM22.9688 6.5625C24.6345 6.5625 26.1177 6.92125 27.1042 7.41672C28.0919 7.91219 28.4375 8.43391 28.4375 8.75C28.4375 9.06719 28.0919 9.58781 27.1042 10.0833C26.1187 10.5787 24.6345 10.9375 22.9688 10.9375C21.303 10.9375 19.8198 10.5787 18.8333 10.0833C17.8456 9.58781 17.5 9.06609 17.5 8.75C17.5 8.43281 17.8456 7.91219 18.8333 7.41672C19.8187 6.92125 21.303 6.5625 22.9688 6.5625ZM17.5 11.8606C17.6148 11.9241 17.722 12.0061 17.8423 12.0652C19.2303 12.7575 21.0077 13.125 22.9688 13.125C24.9298 13.125 26.7072 12.7575 28.0963 12.0652C28.2155 12.0061 28.3227 11.9241 28.4375 11.8606V13.125C28.4375 13.4422 28.0919 13.9628 27.1042 14.4583C26.1177 14.9537 24.6345 15.3125 22.9688 15.3125C21.303 15.3125 19.8198 14.9537 18.8333 14.4583C17.8456 13.9628 17.5 13.4411 17.5 13.125V11.8606ZM12.0312 15.3125C13.697 15.3125 15.1802 15.6713 16.1667 16.1667C17.1544 16.6622 17.5 17.1839 17.5 17.5C17.5 17.8172 17.1544 18.3378 16.1667 18.8333C15.1802 19.3287 13.697 19.6875 12.0312 19.6875C10.3655 19.6875 8.88234 19.3287 7.89578 18.8333C6.90812 18.3378 6.5625 17.8161 6.5625 17.5C6.5625 17.1828 6.90812 16.6622 7.89578 16.1667C8.88125 15.6713 10.3655 15.3125 12.0312 15.3125ZM28.4375 16.2356V17.5C28.4375 17.8172 28.0919 18.3378 27.1042 18.8333C26.1177 19.3287 24.6345 19.6875 22.9688 19.6875C21.8546 19.6935 20.7467 19.5203 19.6875 19.1745V17.5C19.6875 17.3589 19.6405 17.2222 19.6186 17.0898C20.6358 17.3545 21.7634 17.5 22.9688 17.5C24.9298 17.5 26.7072 17.1325 28.0963 16.4402C28.2155 16.3811 28.3227 16.2991 28.4375 16.2356ZM6.5625 20.6106C6.67734 20.6741 6.78453 20.7561 6.90484 20.8152C8.29281 21.5075 10.0702 21.875 12.0312 21.875C13.9923 21.875 15.7697 21.5075 17.1587 20.8152C17.278 20.7561 17.3852 20.6741 17.5 20.6106V21.875C17.5 22.1922 17.1544 22.7128 16.1667 23.2083C15.1802 23.7038 13.697 24.0625 12.0312 24.0625C10.3655 24.0625 8.88234 23.7038 7.89578 23.2083C6.90812 22.7128 6.5625 22.1911 6.5625 21.875V20.6106ZM28.4375 20.6106V21.875C28.4375 22.1922 28.0919 22.7128 27.1042 23.2083C26.1177 23.7038 24.6345 24.0625 22.9688 24.0625C21.7252 24.0625 20.6019 23.8875 19.6875 23.5834V21.4648C20.6916 21.7295 21.7853 21.875 22.9688 21.875C24.9298 21.875 26.7072 21.5075 28.0963 20.8152C28.2155 20.7561 28.3227 20.6741 28.4375 20.6106ZM6.5625 24.9856C6.67734 25.0491 6.78453 25.1311 6.90484 25.1902C8.29281 25.8825 10.0702 26.25 12.0312 26.25C13.9923 26.25 15.7697 25.8825 17.1587 25.1902C17.278 25.1311 17.3852 25.0491 17.5 24.9856V26.25C17.5 26.5672 17.1544 27.0878 16.1667 27.5833C15.1802 28.0788 13.697 28.4375 12.0312 28.4375C10.3655 28.4375 8.88234 28.0788 7.89578 27.5833C6.90812 27.0878 6.5625 26.5661 6.5625 26.25V24.9856Z" fill="#844FD1"/>
</svg>
